<svg width="50" height="50" fill="none" xmlns="http://www.w3.org/2000/svg">
<circle cx="25" cy="25" r="25" fill="#FFFC00"></circle><g clip-path="url(#ghost-icon-yellow-circle_svg__clip0_8110_1022)" fill-rule="evenodd" clip-rule="evenodd">
<path d="M38.765 31.941c-.12-.4-.698-.679-.698-.679-.052-.032-.104-.056-.144-.076a10.939 10.939 0 01-2.527-1.656 8.55 8.55 0 01-1.465-1.67c-.484-.726-.711-1.337-.807-1.664-.056-.216-.044-.3 0-.411a.658.658 0 01.204-.224c.323-.227.846-.567 1.165-.774.276-.18.515-.336.655-.432.451-.315.759-.634.942-.982.236-.447.264-.942.08-1.425-.247-.655-.858-1.046-1.633-1.046-.171 0-.351.02-.527.056a8.238 8.238 0 00-1.217.391c-.024.012-.052-.008-.052-.036.036-.874.08-2.048-.016-3.166-.088-1.01-.296-1.86-.635-2.603a6.806 6.806 0 00-1.134-1.693 6.982 6.982 0 00-1.788-1.441c-1.234-.707-2.64-1.066-4.177-1.066-1.533 0-2.934.36-4.172 1.062a7.098 7.098 0 00-1.793 1.441c-.347.4-.79.95-1.133 1.693-.34.742-.547 1.593-.635 2.603-.096 1.118-.056 2.2-.016 3.166 0 .028-.028.048-.052.036a8.234 8.234 0 00-1.218-.391 2.367 2.367 0 00-.527-.056c-.774 0-1.385.391-1.633 1.046-.183.487-.155.978.08 1.425.184.348.491.667.942.982.14.096.38.252.655.431.316.204.822.532 1.146.763.04.028.176.132.22.24.047.115.055.2-.004.427-.1.331-.328.934-.803 1.649a8.554 8.554 0 01-1.465 1.669 11.111 11.111 0 01-2.527 1.656c-.044.02-.1.048-.16.084 0 0-.575.292-.683.671-.16.559.264 1.082.703 1.366.71.459 1.577.706 2.08.838.14.036.268.072.383.108.072.024.252.091.332.191.095.124.107.28.143.456.056.295.18.658.543.91.4.275.91.295 1.553.32.675.023 1.514.06 2.472.374.443.148.846.396 1.313.683.974.6 2.188 1.346 4.26 1.346 2.072 0 3.294-.75 4.276-1.35.463-.283.863-.53 1.298-.675.958-.315 1.796-.347 2.471-.375.643-.024 1.154-.044 1.553-.32.391-.267.503-.67.555-.973.028-.148.048-.284.132-.396.072-.096.24-.16.32-.187.12-.036.247-.072.395-.112.503-.136 1.13-.292 1.896-.727.906-.519.97-1.161.874-1.477z" fill="#FFFFFE"></path><path d="M37.504 32.813c-1.254.69-2.088.618-2.739 1.038-.55.355-.224 1.118-.627 1.397-.49.34-1.948-.024-3.824.595-1.55.511-2.54 1.984-5.326 1.984-2.795 0-3.758-1.465-5.326-1.984-1.877-.619-3.334-.256-3.825-.595-.4-.275-.076-1.042-.627-1.397-.647-.42-1.485-.344-2.739-1.038-.799-.443-.347-.715-.08-.843 4.548-2.2 5.27-5.597 5.302-5.853.04-.303.084-.547-.255-.854-.324-.3-1.765-1.194-2.164-1.47-.663-.462-.954-.922-.739-1.488.148-.392.515-.54.902-.54.12 0 .244.016.36.04.726.16 1.433.523 1.84.62a.72.72 0 00.152.02c.216 0 .295-.109.28-.36-.049-.795-.16-2.344-.037-3.789.172-1.988.815-2.978 1.578-3.849.367-.419 2.084-2.236 5.373-2.236 3.298 0 5.011 1.817 5.374 2.236.763.875 1.406 1.86 1.577 3.849.124 1.445.016 2.994-.036 3.789-.015.263.064.36.28.36a.754.754 0 00.152-.02c.407-.1 1.114-.464 1.84-.62.12-.024.24-.04.36-.04.387 0 .754.148.902.54.215.566-.076 1.03-.739 1.489-.399.28-1.84 1.17-2.164 1.469-.335.311-.291.55-.255.854.032.256.758 3.653 5.302 5.853.275.128.726.4-.072.843zm2.056-1.102c-.204-.555-.59-.85-1.034-1.098a4.494 4.494 0 00-.224-.12 35.915 35.915 0 00-.403-.204c-1.381-.73-2.455-1.652-3.202-2.746a6.463 6.463 0 01-.55-.975c-.065-.183-.06-.287-.017-.379a.648.648 0 01.176-.184l.647-.423c.295-.191.53-.343.679-.447.566-.395.962-.814 1.21-1.286a2.58 2.58 0 00.123-2.131c-.375-.987-1.306-1.601-2.44-1.601a3.615 3.615 0 00-.894.12c.012-.671-.004-1.39-.064-2.089-.211-2.467-1.074-3.757-1.976-4.787a7.888 7.888 0 00-2.008-1.62c-1.366-.783-2.915-1.178-4.603-1.178-1.685 0-3.23.395-4.6 1.177a7.859 7.859 0 00-2.012 1.621c-.902 1.03-1.765 2.324-1.976 4.787-.06.703-.076 1.418-.064 2.088-.06-.016-.124-.028-.184-.044a3.31 3.31 0 00-.71-.075c-1.13 0-2.065.614-2.44 1.6-.268.711-.223 1.47.124 2.133.247.47.643.89 1.21 1.285.151.104.383.256.678.447.16.104.396.256.623.407.036.024.16.116.2.2.048.1.048.204-.02.4-.12.267-.296.594-.54.954-.73 1.07-1.776 1.976-3.11 2.699-.706.375-1.44.626-1.752 1.469-.236.639-.08 1.361.515 1.972.195.212.443.395.75.567.727.403 1.35.599 1.837.735.084.023.284.087.371.163.216.188.184.475.475.895.176.26.376.439.543.55.607.42 1.286.444 2.009.472.65.024 1.39.052 2.235.331.352.116.715.34 1.134.599 1.015.623 2.396 1.473 4.712 1.473 2.315 0 3.709-.854 4.723-1.477.419-.255.778-.48 1.117-.59.843-.28 1.582-.308 2.236-.332.723-.028 1.402-.052 2.009-.472a2.11 2.11 0 00.618-.674c.208-.352.204-.603.4-.77.08-.069.255-.132.347-.16a8.127 8.127 0 001.86-.743c.328-.18.587-.38.787-.607l.008-.008c.559-.599.699-1.305.467-1.924z" fill="#000">
</path>
</g>
<defs>
<clipPath id="ghost-icon-yellow-circle_svg__clip0_8110_1022">
<path fill="#fff" transform="translate(10.273 10.52)" d="M0 0h29.454v28.964H0z">
</path>
</clipPath>
</defs>
</svg>